<svg width="28" height="22" viewBox="0 0 28 22" fill="none" xmlns="http://www.w3.org/2000/svg">
<path d="M5.71316 1.92274C5.71316 1.25509 6.27352 0.557765 7.10713 0.188159C7.9787 -0.198178 8.62588 0.0401666 8.32069 0.635163C7.79893 1.65233 5.71316 2.68224 5.71316 1.92274Z" fill="white"/>
<path d="M4.02902 3.37482C3.26224 2.95589 3.35382 1.51762 4.20636 0.590905C4.60608 0.156316 4.81515 0.148004 5.02305 0.558521C5.48982 1.47994 4.69301 3.73752 4.02902 3.37482Z" fill="white"/>
<path d="M2.86463 5.63736C1.97423 5.63736 1.63108 4.0185 2.28132 2.88594C2.65376 2.23708 2.94225 2.27281 3.31754 3.01428C3.67159 3.71366 3.33943 5.63736 2.86463 5.63736Z" fill="white"/>
<path d="M4.89361 4.01937C4.37587 3.69715 4.78924 2.98525 5.63977 2.73406C6.25004 2.5539 6.81209 2.68613 7.19247 3.09935C7.8333 3.7957 5.82536 4.59925 4.89361 4.01937Z" fill="white"/>
<path d="M3.3792 5.89805C3.21423 5.69501 3.67592 4.96184 4.15761 4.66207C4.64627 4.35788 5.4067 4.37699 5.77777 4.70266L6.06562 4.95547L5.8629 5.23106C5.25982 6.05155 3.81868 6.43854 3.3792 5.89805Z" fill="white"/>
<path d="M1.95593 8.12011C1.02757 8.12011 0.451141 6.41155 1.00833 5.31169C1.47002 4.40041 2.32922 5.48883 2.32922 6.98485C2.32922 7.94816 2.27265 8.12011 1.95593 8.12011Z" fill="white"/>
<path d="M2.5789 8.17387C2.42366 7.76109 2.91845 6.90335 3.49076 6.5929C4.07417 6.2764 4.97292 6.39136 4.97292 6.78234C4.97292 7.66307 2.85056 8.89668 2.5789 8.17387Z" fill="white"/>
<path d="M0.305208 9.64053C0.166679 9.21328 0.135271 8.12206 0.255718 7.923C0.761299 7.08805 2.35545 9.53345 1.97148 10.5548C1.7714 11.0871 0.558475 10.4216 0.305208 9.64053Z" fill="white"/>
<path d="M2.32922 10.2339C2.32922 9.44601 2.78944 8.75818 3.45216 8.55557C4.43509 8.25526 4.6891 8.79056 4.03483 9.78345C3.66197 10.3494 3.29862 10.6065 2.76945 10.679L2.32922 10.7392V10.2339Z" fill="white"/>
<path d="M2.60607 13.0873C2.14374 12.6144 2.68105 11.0893 3.42678 10.758C4.19335 10.4174 4.41658 10.6829 4.17156 11.6431C3.93807 12.5584 2.96583 13.4553 2.60607 13.0873Z" fill="white"/>
<path d="M0.716885 12.8969C0.252863 12.4451 -0.175839 11.037 0.073303 10.7828C0.60733 10.2376 2.20444 11.8449 2.21893 12.9422C2.22707 13.5543 1.36533 13.5284 0.716885 12.8969Z" fill="white"/>
<path d="M3.21909 15.0286C2.93939 14.2372 3.14063 13.3933 3.70173 13.0047C3.89461 12.871 4.15887 12.7618 4.28884 12.7618C4.94553 12.7618 4.69692 14.6401 3.96218 15.2302C3.57345 15.5422 3.38226 15.4904 3.21909 15.0286Z" fill="white"/>
<path d="M2.28354 15.8922C1.39304 15.8922 0.00995997 14.1937 0.496295 13.6973C0.791649 13.3957 1.97021 13.8085 2.41076 14.3678C3.30898 15.5081 3.27694 15.8922 2.28354 15.8922Z" fill="white"/>
<path d="M4.32162 16.9678C3.92433 16.2116 4.14227 15.2134 4.79305 14.8084C5.21847 14.5435 5.16052 14.52 5.39877 15.0556C6.03315 16.4822 5.01554 18.2886 4.32162 16.9678Z" fill="white"/>
<path d="M3.44064 18.267C2.32045 18.267 0.92817 16.6017 1.82692 16.3368C2.01589 16.2811 2.19767 16.2311 2.23067 16.2258C2.77516 16.1376 4.44418 17.3032 4.44418 17.7714C4.44418 17.999 3.90138 18.267 3.44064 18.267Z" fill="white"/>
<path d="M6.06118 18.9956C5.38122 18.2366 5.31861 17.3033 5.90171 16.6208C6.17274 16.3037 6.4241 16.3965 6.72802 16.9259C7.38673 18.0731 6.81748 19.8399 6.06118 18.9956Z" fill="white"/>
<path d="M8.09651 20.4104C7.24714 19.7936 6.93032 18.6463 7.44795 18.0624C7.7339 17.7399 7.86714 17.7753 8.29732 18.2883C9.17006 19.3291 9.0053 21.0705 8.09651 20.4104Z" fill="white"/>
<path d="M5.25643 20.2892C4.09194 20.4231 2.57149 19.1974 3.36027 18.7605C3.98333 18.4154 4.97853 18.5931 5.84534 19.2042C6.46619 19.6419 6.172 20.1838 5.25643 20.2892Z" fill="white"/>
<path d="M5.14423 21.2025C5.06048 21.0642 5.62877 20.5409 5.98853 20.4248C6.69217 20.1979 8.35686 20.667 8.35686 21.092C8.35686 22.1439 5.76804 22.2328 5.14423 21.2025Z" fill="white"/>
<path d="M22.031 1.92274C22.031 1.25509 21.4706 0.557765 20.637 0.188159C19.7654 -0.198178 19.1183 0.0401666 19.4234 0.635163C19.9452 1.65233 22.031 2.68224 22.031 1.92274Z" fill="white"/>
<path d="M23.7151 3.37482C24.4819 2.95589 24.3903 1.51762 23.5378 0.590905C23.1381 0.156316 22.929 0.148004 22.7211 0.558521C22.2543 1.47994 23.0511 3.73752 23.7151 3.37482Z" fill="white"/>
<path d="M24.8795 5.63736C25.7699 5.63736 26.1131 4.0185 25.4628 2.88594C25.0904 2.23708 24.8019 2.27281 24.4266 3.01428C24.0726 3.71366 24.4047 5.63736 24.8795 5.63736Z" fill="white"/>
<path d="M22.8505 4.01937C23.3683 3.69715 22.9549 2.98525 22.1044 2.73406C21.4941 2.5539 20.932 2.68613 20.5517 3.09935C19.9108 3.7957 21.9188 4.59925 22.8505 4.01937Z" fill="white"/>
<path d="M24.3649 5.89805C24.5299 5.69501 24.0682 4.96184 23.5865 4.66207C23.0979 4.35788 22.3374 4.37699 21.9664 4.70266L21.6785 4.95547L21.8812 5.23106C22.4843 6.05155 23.9255 6.43854 24.3649 5.89805Z" fill="white"/>
<path d="M25.7882 8.12011C26.7166 8.12011 27.293 6.41155 26.7358 5.31169C26.2741 4.40041 25.4149 5.48883 25.4149 6.98485C25.4149 7.94816 25.4715 8.12011 25.7882 8.12011Z" fill="white"/>
<path d="M25.1652 8.17387C25.3205 7.76109 24.8257 6.90335 24.2534 6.5929C23.67 6.2764 22.7712 6.39136 22.7712 6.78234C22.7712 7.66307 24.8936 8.89668 25.1652 8.17387Z" fill="white"/>
<path d="M27.4389 9.64053C27.5775 9.21328 27.6089 8.12206 27.4884 7.923C26.9828 7.08805 25.3887 9.53345 25.7727 10.5548C25.9727 11.0871 27.1857 10.4216 27.4389 9.64053Z" fill="white"/>
<path d="M25.4149 10.2339C25.4149 9.44601 24.9547 8.75818 24.292 8.55557C23.3091 8.25526 23.055 8.79056 23.7093 9.78345C24.0822 10.3494 24.4455 10.6065 24.9747 10.679L25.4149 10.7392V10.2339Z" fill="white"/>
<path d="M25.1381 13.0873C25.6004 12.6144 25.0631 11.0893 24.3174 10.758C23.5508 10.4174 23.3276 10.6829 23.5726 11.6431C23.8061 12.5584 24.7783 13.4553 25.1381 13.0873Z" fill="white"/>
<path d="M27.0273 12.8969C27.4913 12.4451 27.92 11.037 27.6708 10.7828C27.1368 10.2376 25.5397 11.8449 25.5252 12.9422C25.5171 13.5543 26.3788 13.5284 27.0273 12.8969Z" fill="white"/>
<path d="M24.525 15.0286C24.8048 14.2372 24.6035 13.3933 24.0424 13.0047C23.8495 12.871 23.5853 12.7618 23.4553 12.7618C22.7986 12.7618 23.0472 14.6401 23.782 15.2302C24.1707 15.5422 24.3619 15.4904 24.525 15.0286Z" fill="white"/>
<path d="M25.4606 15.8922C26.3511 15.8922 27.7342 14.1937 27.2478 13.6973C26.9525 13.3957 25.7739 13.8085 25.3334 14.3678C24.4352 15.5081 24.4672 15.8922 25.4606 15.8922Z" fill="white"/>
<path d="M23.4225 16.9678C23.8198 16.2116 23.6019 15.2134 22.9511 14.8084C22.5257 14.5435 22.5836 14.52 22.3454 15.0556C21.711 16.4822 22.7286 18.2886 23.4225 16.9678Z" fill="white"/>
<path d="M24.3035 18.267C25.4237 18.267 26.816 16.6017 25.9172 16.3368C25.7282 16.2811 25.5465 16.2311 25.5135 16.2258C24.969 16.1376 23.3 17.3032 23.3 17.7714C23.3 17.999 23.8428 18.267 24.3035 18.267Z" fill="white"/>
<path d="M21.683 18.9956C22.3629 18.2366 22.4255 17.3033 21.8424 16.6208C21.5714 16.3037 21.32 16.3965 21.0161 16.9259C20.3574 18.0731 20.9267 19.8399 21.683 18.9956Z" fill="white"/>
<path d="M19.6476 20.4104C20.497 19.7936 20.8138 18.6463 20.2962 18.0624C20.0102 17.7399 19.877 17.7753 19.4468 18.2883C18.5741 19.3291 18.7388 21.0705 19.6476 20.4104Z" fill="white"/>
<path d="M22.4877 20.2892C23.6522 20.4231 25.1726 19.1974 24.3839 18.7605C23.7608 18.4154 22.7656 18.5931 21.8988 19.2042C21.278 19.6419 21.5721 20.1838 22.4877 20.2892Z" fill="white"/>
<path d="M22.5999 21.2025C22.6837 21.0642 22.1154 20.5409 21.7556 20.4248C21.052 20.1979 19.3873 20.667 19.3873 21.092C19.3873 22.1439 21.9761 22.2328 22.5999 21.2025Z" fill="white"/>
<path d="M13.8721 5.00012L15.9881 8.08766L19.5784 9.14602L17.2959 12.1126L17.3988 15.8542L13.8721 14.6001L10.3454 15.8542L10.4483 12.1126L8.16573 9.14602L11.756 8.08766L13.8721 5.00012Z" fill="black"/>
<path d="M13.8721 5.00012L15.9881 8.08766L19.5784 9.14602L17.2959 12.1126L17.3988 15.8542L13.8721 14.6001L10.3454 15.8542L10.4483 12.1126L8.16573 9.14602L11.756 8.08766L13.8721 5.00012Z" fill="white" fill-opacity="0.1"/>
</svg>
