<svg xmlns="http://www.w3.org/2000/svg" width="52" height="40" fill="none" xmlns:v="https://vecta.io/nano"><g fill-rule="evenodd"><path d="M41.907 30.688c.796.4.429 1.406-.512 1.406-.384 0-.384-.04.002-.297.476-.317.522-.613.114-.746-.214-.07-.371-.021-.717.225-.388.275-.372.274-.372.01 0-.599.823-.931 1.485-.598zm-.283.481c.221.173.069.346-.86.986-.923.636-1.057.692-1.28.537-.29-.201-.195-.313.885-1.051.928-.634 1.008-.665 1.255-.472z" fill="#ccc"/><path d="M.041 24.306C1.564 9.461 22.769 7.142 27.286 21.326c.471 1.479.689 3.068.699 5.082l.006 1.269.1-.392c1.094-4.291-.081-9.242-2.948-12.415l-.377-.418L24.763 0h8.594v16.627l.444-.391c6.625-5.843 16.561-2.592 17.957 5.875.209 1.269.344 17.785.146 17.849-.122.039-17.927.059-17.827.019.054-.021 2.038-.409 4.409-.861l4.31-.823-.001-5.256c-.001-6.212-.043-7.117-.395-8.501-.59-2.322-2.317-3.474-4.096-3.46-1.766.014-3.584 1.178-4.39 3.488-.54 1.546-.556 1.818-.556 9.156v6.267h-8.594V28.052l-5.07.035-8.172.035c-2.919 0-3.102.005-3.101.091.005.63.941 2.46 1.657 3.239 2.481 2.7 7.516 2.202 9.484-.938.121-.194.233-.352.247-.351.022.001 3.498 5.061 4.137 6.022l.209.315-.183.155c-1.836 1.553-3.836 2.512-6.246 2.994C8.596 41.473.78 36.005.017 27.259a40.04 40.04 0 0 1 .024-2.953zm13.134-5.466c-2.159.407-4.6 2.535-4.6 4.01 0 .06 10.827.044 10.888-.017.086-.085-.463-1.3-.834-1.847-1.11-1.636-3.395-2.535-5.455-2.147z" fill="#fff"/></g><path d="M42.795 38.294l-4.31.823-4.411.864h11.134V25.912c0-1.532-2.071-5.558-6.905-4.836 1.779-.014 3.506 1.138 4.096 3.46.352 1.384.394 2.29.395 8.501l.001 5.256z" fill="#ccc"/></svg>