<svg xmlns="http://www.w3.org/2000/svg" width="15" height="15" fill="none" xmlns:v="https://vecta.io/nano"><path d="M13.75 10.575v1.875a1.25 1.25 0 0 1-.405.926 1.25 1.25 0 0 1-.445.263c-.165.056-.34.076-.513.061a12.37 12.37 0 0 1-5.394-1.919 12.19 12.19 0 0 1-3.75-3.75 12.37 12.37 0 0 1-1.919-5.419 1.25 1.25 0 0 1 .322-.955 1.25 1.25 0 0 1 .922-.407h1.875a1.25 1.25 0 0 1 1.25 1.075c.079.6.226 1.189.438 1.756A1.25 1.25 0 0 1 5.85 5.4l-.794.794a10 10 0 0 0 3.75 3.75L9.6 9.15a1.25 1.25 0 0 1 1.319-.281c.567.212 1.156.358 1.756.438a1.25 1.25 0 0 1 1.075 1.269z" stroke="#fff" stroke-linejoin="round"/></svg>