<svg xmlns="http://www.w3.org/2000/svg" width="93" height="77" fill="none" xmlns:v="https://vecta.io/nano"><path d="M15.117 34.65c0 4.064 2.519 6.738 7.558 8.021 10.516 2.353 15.774 8.128 15.774 17.325 0 4.919-1.753 8.983-5.258 12.192C29.905 75.396 25.523 77 20.046 77c-5.258 0-9.968-2.139-14.131-6.417C1.972 66.092 0 59.354 0 50.371 0 41.174 2.629 32.083 7.887 23.1 13.364 14.117 21.141 6.417 31.219 0l4.929 6.096C22.127 15.079 15.117 24.597 15.117 34.65zm54.551 0c0 4.064 2.519 6.738 7.558 8.021C87.742 45.024 93 50.799 93 59.996c0 4.919-1.753 8.983-5.258 12.192C84.456 75.396 80.074 77 74.597 77c-5.258 0-9.968-2.139-14.131-6.417-3.943-4.492-5.915-11.229-5.915-20.212 0-9.197 2.629-18.287 7.887-27.271C67.915 14.117 75.693 6.417 85.77 0L90.7 6.096C76.679 15.079 69.668 24.597 69.668 34.65z" fill="#102328"/></svg>